<?xml version="1.0" encoding="UTF-8" standalone="no"?>
<!-- Created with Inkscape (http://www.inkscape.org/) -->

<svg
   width="210mm"
   height="297mm"
   viewBox="0 0 210 297"
   version="1.1"
   id="svg1"
   xml:space="preserve"
   inkscape:version="1.4.3 (0d15f75, 2025-12-25)"
   sodipodi:docname="drawing.svg"
   xmlns:inkscape="http://www.inkscape.org/namespaces/inkscape"
   xmlns:sodipodi="http://sodipodi.sourceforge.net/DTD/sodipodi-0.dtd"
   xmlns="http://www.w3.org/2000/svg"
   xmlns:svg="http://www.w3.org/2000/svg"><sodipodi:namedview
     id="namedview1"
     pagecolor="#ffffff"
     bordercolor="#cccccc"
     borderopacity="1"
     inkscape:showpageshadow="0"
     inkscape:pageopacity="1"
     inkscape:pagecheckerboard="0"
     inkscape:deskcolor="#d1d1d1"
     inkscape:document-units="mm"
     inkscape:zoom="0.71891835"
     inkscape:cx="396.42889"
     inkscape:cy="561.25984"
     inkscape:window-width="1920"
     inkscape:window-height="1009"
     inkscape:window-x="-8"
     inkscape:window-y="-8"
     inkscape:window-maximized="1"
     inkscape:current-layer="layer1" /><defs
     id="defs1" /><g
     inkscape:label="Layer 1"
     inkscape:groupmode="layer"
     id="layer1"><path
       style="fill:#ffffff;fill-opacity:1"
       d="m 152.23886,235.87105 c -5.72755,-0.42376 -11.19711,-2.27555 -15.61041,-5.28509 -2.96945,-2.02494 -6.44192,-6.06951 -8.22987,-9.58578 -0.42547,-0.83674 -0.84674,-1.52135 -0.93615,-1.52135 -0.0894,0 -0.60789,0.40234 -1.1522,0.89408 -2.05171,1.8536 -6.15601,2.89715 -10.84845,2.75832 -2.7879,-0.0825 -3.48303,-0.19039 -4.42632,-0.6871 -1.99329,-1.0496 -2.43096,-2.90175 -1.24708,-5.27749 0.37213,-0.74677 1.16229,-1.79655 1.75591,-2.33286 l 1.07932,-0.97509 -0.16103,-1.90493 c -0.11334,-1.34086 -0.71163,-3.54377 -2.02049,-7.43947 -1.02271,-3.044 -1.85948,-5.53983 -1.85948,-5.54631 0,-0.006 -0.82511,0.10228 -1.83359,0.24167 -1.14914,0.15883 -2.92717,0.16207 -4.76322,0.009 l -2.929629,-0.24473 -0.10964,0.79375 c -0.18583,1.34533 -0.688912,6.96051 -0.960049,10.71563 -0.432439,5.98907 -0.719189,8.11843 -1.256989,9.33422 -1.057384,2.39039 -3.750435,3.17388 -11.033338,3.20992 -4.481199,0.0222 -4.829532,-0.0122 -5.897359,-0.58242 -1.668571,-0.89097 -2.222337,-1.9278 -2.108739,-3.94824 0.111926,-1.99067 0.954619,-3.21537 3.056184,-4.44161 1.202498,-0.70164 1.361378,-0.89638 1.369195,-1.67823 0.01752,-1.75244 -1.078743,-6.15907 -2.652832,-10.66352 -5.573845,-15.95023 -6.835303,-25.3799 -4.879314,-36.47387 0.218084,-1.23693 0.396679,-2.38634 0.396878,-2.55424 2.05e-4,-0.17284 -0.617238,0.0292 -1.423195,0.46575 -2.868399,1.55359 -8.232632,2.30324 -11.330949,1.5835 l -0.980548,-0.22779 -0.180032,1.20054 c -0.390315,2.60281 0.479272,8.10819 1.98127,12.54349 1.183263,3.49409 2.829848,6.56004 7.292876,13.57937 0.832725,1.30969 2.22791,3.79898 3.100411,5.53176 2.56208,5.08826 2.894858,8.10609 1.262898,11.45269 -1.116156,2.28887 -3.649135,4.56684 -6.667546,5.99631 -1.4817,0.7017 -2.374246,1.2868 -2.479653,1.62549 -0.363083,1.16666 -2.579032,4.12903 -4.310422,5.76233 -3.982649,3.75703 -10.094193,6.40544 -18.9045,8.19216 -2.544398,0.51601 -3.759476,0.59727 -8.899831,0.59523 -5.285368,-0.002 -6.214333,-0.0687 -8.281816,-0.59358 -5.557967,-1.41107 -9.205496,-3.95274 -11.099499,-7.73436 -0.79871,-1.59473 -0.859148,-1.9026 -0.857002,-4.36563 0.0026,-3.01645 0.386423,-4.04073 2.286392,-6.10195 0.791731,-0.85893 3.943028,-3.23663 4.934157,-3.72291 0.04351,-0.0213 -0.527523,-0.84028 -1.26896,-1.81985 -3.539192,-4.67592 -5.588878,-11.07557 -5.178922,-16.16991 0.670111,-8.32716 4.845708,-15.44328 12.900995,-21.98608 l 3.311604,-2.68981 0.152691,-3.91928 c 0.243354,-6.24639 1.454926,-9.92804 5.095841,-15.48492 l 1.752123,-2.67414 -0.724344,-1.70432 c -1.486827,-3.49837 -4.155703,-6.27281 -7.505926,-7.80283 -1.579433,-0.72131 -1.728718,-0.74538 -2.033946,-0.32796 -0.275515,0.37679 -0.588255,0.42045 -1.911625,0.26685 -1.404823,-0.16304 -1.613202,-0.12574 -1.858547,0.33269 -0.606003,1.13233 -1.501341,1.20128 -5.879293,0.45281 -2.241001,-0.38314 -4.491267,-0.7639 -5.00059,-0.84614 -1.126146,-0.18185 -1.5875,-0.5155 -1.5875,-1.14808 0,-0.49957 -0.530185,-0.65414 -4.5525423,-1.32724 -0.9759294,-0.16331 -1.9120565,-0.46277 -2.0802825,-0.66547 -0.3842869,-0.46304 1.4111274,-9.81868 1.9966383,-10.40419 0.3302721,-0.33027 0.7978664,-0.29151 3.5734273,0.29625 3.1021522,0.65692 3.2010602,0.66199 3.4603212,0.17756 0.146789,-0.27428 0.474287,-0.49869 0.727773,-0.49869 1.186829,0 10.235461,2.15378 10.659009,2.53708 0.260239,0.23552 0.543768,0.74968 0.630064,1.14258 0.134154,0.6108 0.376082,0.76985 1.668643,1.09704 1.193145,0.30203 1.528726,0.50178 1.592335,0.94782 0.06242,0.43772 0.518414,0.72482 2.022373,1.27335 3.827756,1.39606 7.465036,4.11897 10.01669,7.49861 1.241043,1.64375 1.370317,1.56078 1.750458,-1.1235 0.664798,-4.69432 -1.507191,-9.95375 -5.846767,-14.15783 -1.458751,-1.41321 -2.082815,-1.84827 -2.595211,-1.80922 -0.371041,0.0283 -1.162451,-0.22277 -1.758688,-0.55788 -0.873663,-0.49102 -1.190369,-0.55239 -1.631761,-0.31616 -1.367457,0.73184 -2.455707,0.26704 -7.858522,-3.3564 -2.438652,-1.6355 -2.645833,-1.84134 -2.645833,-2.62868 0,-0.78705 -0.192951,-0.97907 -2.453477,-2.4416 -1.349412,-0.87305 -2.522281,-1.76667 -2.606375,-1.98582 -0.08906,-0.23209 0.701738,-1.80862 1.894129,-3.7761 2.323203,-3.833356 2.682254,-4.305106 3.272876,-4.300176 0.232107,0.002 1.553107,0.76301 2.935555,1.691286 2.195862,1.47445 2.566335,1.64121 2.93125,1.31939 0.22974,-0.2026 0.601599,-0.36837 0.826354,-0.36837 0.533997,0 7.831751,4.86052 8.638777,5.75369 0.472469,0.52289 0.589403,0.89233 0.485365,1.53344 -0.123762,0.76266 -0.021,0.92639 1.059323,1.68787 0.977219,0.68881 1.173826,0.96129 1.07325,1.48741 -0.09641,0.50436 0.08407,0.80024 0.831796,1.36362 4.326143,3.25957 7.717775,7.88853 9.460968,12.91251 0.668983,1.92805 0.735319,2.45854 0.744403,5.95313 0.0092,3.52347 -0.0519,4.02522 -0.748468,6.15029 -0.417142,1.27262 -1.360333,3.35621 -2.09598,4.63021 l -1.33754,2.31637 0.05855,3.175 c 0.113974,6.18092 -1.420062,11.05319 -5.444037,17.29086 l -1.466235,2.27285 0.571892,1.58945 c 1.362984,3.78811 4.334641,7.87455 9.774379,13.44111 1.955325,2.00091 3.642457,3.63802 3.749183,3.63802 0.255178,0 -0.27285,-2.69906 -1.423439,-7.27604 -2.521227,-10.0293 -2.675442,-15.37233 -0.591784,-20.50334 l 0.591707,-1.45708 -0.612284,-1.32291 c -0.940423,-2.03191 -0.881249,-5.13644 0.134718,-7.06783 0.414596,-0.78816 0.818223,-2.00447 0.896948,-2.70292 0.158656,-1.4076 0.681111,-2.24514 2.134071,-3.42112 1.12825,-0.91317 3.216385,-1.22606 4.767024,-0.7143 1.207443,0.39849 2.746354,2.10416 2.968944,3.29067 l 0.173615,0.92545 2.737546,-0.0113 2.737547,-0.0113 2.175407,-2.02099 c 1.196474,-1.11155 3.960016,-4.16496 6.141204,-6.78535 2.181188,-2.62039 4.185301,-5.01024 4.453583,-5.31078 0.485434,-0.5438 0.473433,-0.5526 -2.488977,-1.82528 -8.249058,-3.54386 -17.586303,-9.25127 -25.069472,-15.32376 -5.135758,-4.16759 -5.36953,-4.63999 -3.035119,-6.1333 1.339789,-0.85705 1.667974,-1.43893 0.811565,-1.43893 -0.396118,0 -3.249245,-1.80459 -3.928009,-2.48445 -0.7872,-0.78847 -0.552671,-1.66469 0.949903,-3.54894 3.43211,-4.303906 8.125186,-11.99898 9.031547,-14.808717 L 55.97716,85.05846 54.900784,81.294318 C 52.737209,73.728181 52.073702,69.00509 52.309109,62.8458 c 0.295189,-7.723476 1.878122,-14.212165 3.934448,-16.127925 1.975506,-1.840464 8.797937,1.066965 17.546352,7.477507 3.842851,2.815912 6.580661,5.008285 8.203237,6.568958 l 1.32407,1.273555 2.380096,-0.765304 c 4.591734,-1.476441 6.407994,-1.734515 12.16968,-1.729206 4.488168,0.0041 5.773758,0.100248 8.466658,0.632981 5.15835,1.020467 4.60749,1.083074 5.99779,-0.681662 6.62917,-8.414562 15.63753,-15.523388 21.26814,-16.783462 1.24085,-0.277691 1.49333,-0.256686 2.25341,0.187476 2.63206,1.538087 5.70607,9.33732 7.03777,17.855862 0.67172,4.296879 0.61257,12.365497 -0.12492,17.040179 l -0.54265,3.439583 0.68624,1.190625 c 2.59086,4.495197 6.24408,9.316514 9.95392,13.136657 1.61707,1.66515 3.0444,3.21386 3.17184,3.44159 0.42152,0.75321 -0.69401,1.762106 -3.46439,3.133206 -1.47016,0.72761 -2.68205,1.39413 -2.6931,1.48117 -0.0111,0.087 0.48593,0.36485 1.10439,0.61735 3.37068,1.37616 3.37797,1.59533 0.157,4.71667 -2.76958,2.68391 -6.04386,5.35168 -10.22888,8.33411 -3.22552,2.29865 -12.83566,8.68794 -13.33968,8.86887 -0.20172,0.0724 0.51503,1.00193 1.8032,2.3385 10.8624,11.27057 15.20195,22.58744 11.46796,29.90668 -0.63489,1.24447 -2.83625,3.42349 -4.82801,4.77898 -1.00139,0.6815 -1.49049,1.17974 -1.39707,1.42319 0.26084,0.67973 0.91326,4.96431 1.09559,7.19488 0.17,2.07991 0.20805,2.18321 0.74613,2.02603 2.7391,-0.80011 6.12022,-3.8361 7.64377,-6.86351 1.21266,-2.40965 1.83783,-4.58916 2.846,-9.92188 2.57944,-13.64394 5.41693,-19.99664 11.76208,-26.33356 3.07324,-3.06925 5.25411,-4.5914 9.44441,-6.5918 3.45296,-1.64841 5.27085,-2.27375 9.03973,-3.10961 4.68696,-1.03947 13.37598,-0.73746 14.62165,0.50822 0.61947,0.61947 0.43605,1.25342 -0.83473,2.88502 -1.72614,2.21626 -2.98491,5.00176 -3.60567,7.97894 -0.49586,2.37819 -0.51883,3.04422 -0.30764,8.92008 0.60071,16.71364 -0.26471,23.12157 -4.1723,30.89338 -2.04864,4.07453 -5.05366,7.94593 -8.67784,11.17972 -5.3748,4.79584 -12.90541,7.88713 -20.91222,8.5844 -4.94965,0.43103 -10.51533,-0.45768 -14.6733,-2.34299 -0.95658,-0.43374 -1.73924,-0.6619 -1.73924,-0.50703 0,0.40575 2.82755,7.17021 3.87418,9.26835 0.52492,1.05229 1.02216,1.7331 1.21833,1.66811 0.1823,-0.0604 1.10535,-0.34167 2.05124,-0.62506 0.94588,-0.28339 4.04151,-1.40781 6.87917,-2.49871 2.83765,-1.0909 5.82297,-2.17245 6.63402,-2.40344 10.35825,-2.95003 19.71594,-1.73905 25.1683,3.25704 0.97188,0.89055 2.0109,2.01375 2.30894,2.49599 l 0.5419,0.8768 1.78956,-0.36635 c 2.93874,-0.60161 11.13126,-0.7501 13.9604,-0.25304 4.43055,0.77841 6.35343,1.73696 5.39901,2.69138 -0.37407,0.37408 -0.6594,0.34663 -3.03822,-0.2923 -2.22838,-0.59853 -3.32553,-0.72372 -7.25558,-0.82795 -3.32123,-0.0881 -5.36486,-0.0111 -7.22887,0.27215 -1.42927,0.21722 -2.63887,0.43601 -2.688,0.48621 -0.0491,0.0502 0.0353,0.71918 0.18758,1.48663 0.21615,1.08925 0.37052,1.36797 0.70362,1.2705 3.25125,-0.95144 10.13076,-1.04565 14.18912,-0.19432 3.66623,0.76908 4.74173,1.17153 4.83734,1.81014 0.15579,1.04065 -0.45,1.12261 -3.38621,0.45811 -4.3448,-0.98328 -7.63876,-1.25645 -10.86771,-0.90127 -2.86202,0.31483 -4.97573,0.65656 -5.10865,0.82595 -0.0423,0.0539 -0.27502,0.92117 -0.51713,1.92723 -1.10118,4.57572 -5.19622,8.02717 -11.55234,9.73674 -2.01024,0.54068 -2.82469,0.60322 -7.67292,0.58923 -4.82487,-0.0139 -5.79096,-0.0933 -8.74669,-0.71886 -7.95256,-1.68307 -13.53278,-4.42068 -17.8999,-8.78154 -2.13444,-2.13138 -2.20492,-2.17529 -4.00867,-2.49764 -1.00981,-0.18046 -2.57911,-0.67954 -3.48732,-1.10905 -0.90822,-0.42952 -1.71263,-0.71961 -1.7876,-0.64464 -0.30637,0.30637 0.53066,4.60385 1.41054,7.24201 2.65301,7.9545 7.4818,12.59984 15.60193,15.00921 1.89028,0.56088 3.12733,0.73428 5.99975,0.84101 5.69397,0.21157 8.93213,-0.4193 18.6065,-3.62494 3.05594,-1.0126 6.87459,-2.10078 8.4859,-2.41818 2.416,-0.47591 2.97266,-0.67502 3.175,-1.13565 0.19715,-0.44883 0.51872,-0.5743 1.63668,-0.63863 1.30033,-0.0748 1.41566,-0.13831 1.76353,-0.97089 0.20472,-0.48996 0.61646,-1.02155 0.91497,-1.18131 0.29851,-0.15975 2.8242,-0.46887 5.61265,-0.68692 5.23529,-0.4094 5.79565,-0.35043 5.79565,0.60989 0,0.3508 0.45048,0.38026 3.41864,0.22357 2.21362,-0.11686 3.47691,-0.0862 3.58393,0.087 0.20114,0.32543 0.93376,7.11816 0.93444,8.66386 2.7e-4,0.60987 -0.13022,1.18965 -0.28998,1.28838 -0.15976,0.0987 -1.67736,0.28303 -3.37246,0.40955 -1.69509,0.12651 -3.11648,0.33352 -3.15865,0.46003 -0.33243,0.99728 -0.68048,1.07938 -5.77524,1.36227 -5.43419,0.30175 -6.12877,0.21303 -6.8409,-0.87383 -0.36697,-0.56006 -0.56552,-0.61955 -1.70292,-0.51026 -1.08111,0.10388 -1.38322,0.028 -1.88449,-0.47326 l -0.59697,-0.59696 -2.14188,0.46026 c -1.17803,0.25315 -4.49945,1.22392 -7.38093,2.15726 -11.52315,3.73249 -16.19454,4.55886 -22.94676,4.05929 z m 8.72757,-2.2493 c 3.59238,-0.58258 6.89763,-1.46331 13.3009,-3.54421 3.09127,-1.00458 6.73452,-2.03983 8.0961,-2.30057 l 2.47561,-0.47406 -0.12223,-1.27202 c -0.0672,-0.69962 -0.1802,-1.33001 -0.25107,-1.40087 -0.33279,-0.33279 -5.16321,0.90358 -10.92792,2.79706 -10.63207,3.49223 -14.91993,4.27991 -20.31837,3.73252 -3.48183,-0.35305 -5.91635,-0.98406 -9.11063,-2.36141 -6.65095,-2.86784 -10.63951,-7.382 -13.14357,-14.87561 -0.91916,-2.75068 -1.74202,-6.89468 -1.74407,-8.78338 -8.2e-4,-0.75218 -0.29144,-1.36903 -1.25784,-2.66985 -0.69122,-0.93042 -1.3986,-1.91899 -1.57194,-2.19683 -0.25748,-0.41269 -0.31802,-0.0381 -0.33073,2.0465 -0.0336,5.50524 0.94426,10.94742 2.69401,14.99371 4.00891,9.2706 10.69936,14.53678 20.70606,16.29813 2.86947,0.50507 8.426,0.51034 11.50569,0.0109 z m 38.80286,-3.90635 c 0.0792,-0.0798 -0.74802,-9.56502 -0.84316,-9.66796 -0.22498,-0.24343 -8.75217,0.56769 -9.05872,0.86168 -0.27178,0.26064 -0.2813,1.08386 -0.0479,4.14384 0.16018,2.10022 0.34924,4.10405 0.42015,4.45295 l 0.12891,0.63438 4.6755,-0.18739 c 2.57152,-0.10307 4.69788,-0.20994 4.72524,-0.2375 z M 39.314375,228.87369 c 10.05169,-1.3269 18.380564,-4.99318 22.244379,-9.79174 3.940563,-4.89387 4.739097,-10.88544 2.207406,-16.56265 -1.752813,-3.9306 -4.740938,-7.42534 -11.407505,-13.34155 -16.103358,-14.29084 -19.634616,-22.49908 -15.357008,-35.69662 0.724317,-2.23471 0.937216,-3.33125 0.937216,-4.82714 0,-1.06457 -0.110604,-1.93558 -0.245787,-1.93558 -0.374361,0 -2.611107,3.71909 -3.478832,5.78434 -1.356942,3.22962 -1.909681,6.1106 -1.91059,9.95837 -0.0023,9.8872 3.502956,15.70087 15.953959,26.46028 8.418084,7.2744 10.932889,10.37386 12.664224,15.60847 3.279686,9.91598 -1.457416,16.04497 -15.532322,20.09615 -5.098506,1.46751 -7.589432,1.83828 -12.213152,1.81793 -3.310627,-0.0146 -4.504424,-0.12659 -6.193982,-0.58119 -2.673912,-0.71947 -4.719079,-1.65884 -6.131723,-2.8164 -1.201027,-0.98415 -2.494612,-3.24692 -2.485151,-4.34708 0.01535,-1.78461 1.752712,-3.94189 4.392991,-5.45477 0.709357,-0.40646 1.341846,-0.77986 1.40553,-0.82977 0.06368,-0.0499 -0.403574,-0.61995 -1.038353,-1.26674 l -1.154144,-1.17599 -1.585968,0.84531 c -2.112671,1.12605 -4.014573,3.0264 -4.845644,4.84169 -0.555304,1.21295 -0.659596,1.77899 -0.573775,3.11413 0.329368,5.12407 5.403245,9.08385 13.072936,10.20244 2.547753,0.37158 8.066439,0.32171 11.275295,-0.10189 z m 149.048045,-2.18496 c -0.35481,-3.80644 -0.34163,-3.77032 -1.37516,-3.77032 h -0.92385 l 0.16647,1.78594 c 0.35481,3.80643 0.34164,3.77031 1.37517,3.77031 h 0.92385 z m 16.62789,1.6104 1.81915,-0.17177 -0.17289,-2.53833 c -0.0951,-1.39608 -0.24514,-3.06119 -0.33345,-3.70024 l -0.16057,-1.16191 -2.65879,0.17424 c -1.46233,0.0958 -2.71276,0.22821 -2.77873,0.29419 -0.13836,0.13835 0.4796,6.78235 0.6586,7.08092 0.14535,0.24245 1.22909,0.24929 3.62668,0.0229 z m -3.00978,-1.64348 c 0,-0.55896 0.91073,-0.82682 2.8112,-0.82682 0.95228,0 1.15755,0.0873 1.15755,0.49231 0,0.39633 -0.27083,0.52485 -1.38906,0.65916 -2.24156,0.26924 -2.57969,0.22669 -2.57969,-0.32465 z m -0.22172,-2.04614 c 0.0779,-0.40561 0.44014,-0.54195 1.9112,-0.71933 1.22369,-0.14754 1.90797,-0.12599 2.1001,0.0661 0.52278,0.52277 -0.24724,0.87747 -2.20975,1.01789 -1.75608,0.12564 -1.89047,0.0984 -1.80155,-0.36471 z m -0.21615,-1.8348 c -0.0862,-0.22456 -0.1122,-0.4496 -0.0578,-0.50009 0.0544,-0.0505 0.98913,-0.13466 2.07728,-0.18703 1.66126,-0.08 1.99205,-0.0265 2.06333,0.33359 0.1046,0.52836 -0.64572,0.75334 -2.52873,0.7582 -1.01778,0.003 -1.43992,-0.10729 -1.55404,-0.40467 z m -163.471505,1.43523 c 5.720632,-0.75153 12.63139,-3.01618 16.404167,-5.37564 1.255174,-0.78497 1.309729,-0.77846 -2.38125,-0.28448 -8.054176,1.07792 -16.357445,-0.12462 -22.754167,-3.29542 l -3.175,-1.57382 -1.411789,0.64593 c -6.167474,2.8218 -5.526681,7.08746 1.39306,9.27341 3.28326,1.03718 7.162776,1.23564 11.924979,0.61002 z m 52.975749,-3.96201 c 2.054532,-0.35199 3.115306,-0.82014 3.503991,-1.5464 0.261093,-0.48786 0.635689,-3.63514 0.902859,-7.58565 l 0.127187,-1.88065 -5.561439,-0.19023 c -3.058791,-0.10463 -5.614533,-0.13714 -5.679427,-0.0722 -0.06489,0.0649 0.02623,1.20119 0.202499,2.52511 0.393295,2.95398 0.208814,3.49447 -1.370669,4.01574 -3.144853,1.0379 -4.219083,4.25827 -1.662717,4.98456 1.208874,0.34345 6.951877,0.19277 9.537716,-0.25024 z m 29.122386,0.13606 c 3.42495,-0.70158 5.10843,-1.62558 5.75872,-3.16072 0.29829,-0.70418 0.24672,-1.12919 -0.42923,-3.537 -0.42254,-1.50515 -0.8461,-3.49647 -0.94125,-4.42516 -0.20383,-1.98955 0.12299,-1.90035 -4.74018,-1.29377 -1.74072,0.21712 -3.68484,0.39571 -4.32027,0.39688 -1.1234,0.002 -1.15079,0.0222 -0.99124,0.72971 0.0902,0.40019 0.2398,1.81409 0.33234,3.14201 l 0.16824,2.4144 -1.59496,1.71447 c -1.5029,1.61549 -2.18505,2.99773 -1.79272,3.63254 0.51567,0.83436 5.30719,1.05103 8.55055,0.38664 z m 54.69122,-3.1415 c 4.6906,-1.39862 7.69938,-3.42932 9.07436,-6.12448 1.37254,-2.69042 1.30989,-6.5042 -0.15095,-9.18825 -1.46952,-2.69999 -5.20021,-5.2974 -9.18777,-6.39679 -2.12948,-0.58711 -7.87063,-0.807 -10.82055,-0.41444 -2.90759,0.38693 -7.25972,1.69058 -12.59507,3.77275 -2.25557,0.88026 -5.05354,1.9028 -6.21771,2.27231 -1.16417,0.3695 -2.15535,0.70161 -2.20263,0.73801 -0.0473,0.0364 0.23995,0.55867 0.63829,1.1606 0.50561,0.76403 0.85106,1.04563 1.1443,0.93279 0.23102,-0.0889 2.80129,-0.99553 5.71171,-2.01474 9.23111,-3.23269 13.59343,-4.11951 18.91771,-3.8458 4.69239,0.24123 7.78319,1.32424 10.4311,3.65502 2.15669,1.8984 2.89924,5.03914 1.77386,7.5029 -1.00156,2.19268 -4.18478,4.34081 -7.82486,5.28045 -4.28073,1.10501 -7.65877,1.10441 -13.25938,-0.002 -8.43971,-1.66781 -14.07198,-4.68275 -17.76846,-9.51143 -2.00706,-2.6218 -4.93779,-8.58218 -7.48053,-15.21354 -4.00127,-10.43516 -6.08132,-14.21192 -10.16624,-18.45889 -2.47219,-2.57026 -2.36271,-2.51957 -4.06568,-1.88237 -0.57963,0.21689 -0.5337,0.3057 1.19063,2.30236 4.57337,5.29565 7.44802,10.54243 10.6081,19.36181 3.20458,8.94359 3.98287,10.69923 6.20119,13.98853 2.39225,3.5472 6.14227,6.818 10.13358,8.83861 2.99988,1.51869 9.19914,3.32613 13.34752,3.89156 0.94588,0.12893 3.62479,0.19637 5.95312,0.14987 3.67161,-0.0733 4.54928,-0.17874 6.61436,-0.79449 z M 53.020113,216.5636 c 4.372721,-0.73262 5.223895,-1.02724 5.802934,-2.00864 0.298503,-0.50593 0.613399,-1.20142 0.69977,-1.54555 l 0.157037,-0.62569 -1.858141,0.48784 c -3.118995,0.81887 -6.881208,1.12457 -12.043191,0.97857 -4.048221,-0.1145 -5.168626,-0.23978 -7.1782,-0.80264 -6.550568,-1.83476 -10.54664,-4.09134 -14.019783,-7.91698 -6.127178,-6.74903 -7.102134,-15.67002 -2.59577,-23.75168 1.038607,-1.86263 1.959863,-2.95427 5.362915,-6.3548 l 4.108888,-4.10584 -0.362595,-1.52251 c -0.250507,-1.05185 -0.454982,-1.45235 -0.661459,-1.29557 -6.105905,4.63639 -9.408837,8.2788 -11.801191,13.01414 -4.230489,8.37367 -3.574321,16.42291 1.973529,24.20937 4.758203,6.67819 10.622488,9.93438 20.509007,11.38778 2.793112,0.41061 9.035875,0.33311 11.90625,-0.1478 z m 119.733567,-3.70181 c 2.26636,-0.57964 4.79947,-1.83384 5.72207,-2.83313 0.57083,-0.61828 0.57767,-0.65829 0.0891,-0.52084 -3.96199,1.11471 -11.74034,2.30616 -16.20981,2.48294 -2.22145,0.0879 -4.00076,0.19798 -3.95404,0.2447 0.12125,0.12125 5.40688,1.11212 6.6701,1.2504 1.88431,0.20628 5.62352,-0.0975 7.68253,-0.62407 z m -101.464831,-2.6718 c 2.396297,-2.37083 2.938248,-4.95007 1.808889,-8.60881 -0.802915,-2.60118 -2.239894,-5.32571 -5.464374,-10.36054 -4.768901,-7.44635 -6.745646,-11.91828 -8.024581,-18.15379 -0.422501,-2.05993 -0.527169,-3.39959 -0.459114,-5.87624 l 0.08815,-3.20801 -1.567403,-0.69264 c -0.862072,-0.38095 -1.606671,-0.65337 -1.654665,-0.60538 -0.35181,0.35181 -0.651399,3.6356 -0.525928,5.76468 0.405894,6.88751 2.442118,12.96971 7.15726,21.37875 1.596531,2.84728 3.471073,6.28864 4.165649,7.64748 2.180015,4.26488 2.614557,8.01045 1.211233,10.4403 -0.368186,0.63751 -0.718235,1.78466 -0.820365,2.68844 -0.09798,0.86705 -0.246999,1.85079 -0.331155,2.18609 -0.149091,0.59403 -0.113702,0.58753 1.381915,-0.25353 0.844209,-0.47474 2.209728,-1.5308 3.034487,-2.3468 z m -18.466171,1.59495 c 1.273859,-0.15623 3.416984,-0.54868 4.7625,-0.8721 l 2.446393,-0.58804 -0.07391,-1.30997 c -0.119911,-2.12532 -2.06305,-7.79698 -2.669046,-7.79044 -0.09211,9.9e-4 -0.453855,0.42231 -0.803889,0.93627 -2.048238,3.00742 -8.681447,6.18409 -16.693782,7.99472 -2.169455,0.49025 -2.221746,0.51939 -1.479172,0.82428 2.402943,0.98662 9.721091,1.39274 14.510903,0.80528 z m 117.275562,-2.47279 c 5.03632,-0.95964 9.47608,-1.99098 9.75659,-2.2664 0.24012,-0.23577 0.0393,-1.75934 -0.30163,-2.28881 -0.1412,-0.21926 -1.39553,-0.0652 -4.57435,0.56176 -11.62146,2.29215 -18.33165,2.52654 -27.56863,0.963 -0.69123,-0.117 -1.25381,-0.14231 -1.25018,-0.0562 0.0129,0.30771 3.33263,2.65511 4.36502,3.08658 1.81925,0.76032 3.26156,0.87854 9.6513,0.79105 5.40579,-0.074 6.70141,-0.17729 9.92188,-0.79094 z M 42.484724,207.44092 c 3.280632,-0.82932 6.207691,-1.95469 8.418723,-3.23675 1.987394,-1.15238 5.030763,-4.02831 5.019187,-4.74303 -0.0043,-0.26814 -0.461663,-1.01246 -1.016268,-1.65406 l -1.008372,-1.16655 -0.955128,1.43896 c -1.189626,1.79225 -1.76309,2.33108 -3.754761,3.52802 -2.171142,1.3048 -6.464648,2.64543 -12.439867,3.88431 -2.764896,0.57326 -5.487971,1.16535 -6.051277,1.31576 -1.184423,0.31625 -1.136327,0.37389 1.466197,1.75735 l 1.500336,0.79755 3.107066,-0.63125 c 1.708886,-0.34719 4.28026,-0.92783 5.714164,-1.29031 z M 96.050311,204.133 c 0.164994,-1.52797 0.354001,-3.47019 0.420016,-4.31604 l 0.120027,-1.53792 -1.015329,-0.51798 c -1.040079,-0.53061 -1.133563,-0.685 -0.85473,-1.41163 0.204376,-0.5326 0.761398,-0.52718 2.670763,0.026 1.210202,0.35059 2.724102,0.44881 7.167542,0.46501 4.69126,0.0171 5.67499,0.0866 5.88272,0.41543 0.1372,0.21719 0.86154,2.24035 1.60964,4.49593 0.7481,2.25557 1.45783,4.20759 1.57718,4.33783 0.18617,0.20314 5.39146,-0.23907 9.44041,-0.802 l 1.12448,-0.15633 v -4.75985 -4.75984 l -1.61762,-4.93356 c -1.73185,-5.28194 -3.71137,-10.62209 -3.93747,-10.62209 -0.076,0 -0.41666,0.77647 -0.75701,1.7255 -0.81683,2.27756 -2.81263,5.29576 -4.42718,6.6951 -1.67443,1.45125 -4.50993,2.82371 -7.28198,3.52471 -2.93351,0.74182 -8.12193,0.5981 -10.950615,-0.30334 -5.319189,-1.69509 -8.954303,-4.73737 -11.233518,-9.40146 -2.352756,-4.81459 -3.053845,-9.34398 -2.636326,-17.03198 0.137549,-2.53276 0.21316,-4.64195 0.168025,-4.68708 -0.04514,-0.0451 -0.814195,-0.30993 -1.709022,-0.58843 l -1.62696,-0.50637 -0.42367,1.86274 c -1.757604,7.72759 -1.902914,17.07948 -0.382109,24.59192 0.511097,2.5247 4.00577,14.15524 5.507108,18.32807 l 0.761553,2.11666 4.596834,0.29582 c 2.528259,0.1627 5.251678,0.28176 6.052043,0.26459 l 1.455208,-0.0312 z m 39.927299,0.20954 c -0.58434,-1.05429 -1.34095,-1.955 -2.11265,-2.51503 -2.55022,-1.85069 -3.88818,-4.49883 -5.97678,-11.82949 -2.54582,-8.93543 -4.79852,-13.61742 -8.648,-17.97393 -0.95754,-1.08366 -1.1794,-1.12947 -2.37251,-0.4899 l -0.84306,0.45193 1.1968,1.5875 c 2.03016,2.69293 4.13937,7.42722 6.70355,15.04669 3.31878,9.86178 5.09934,13.1617 8.28598,15.35642 1.24119,0.85484 3.73278,1.96672 4.48113,1.99971 0.10775,0.005 -0.21376,-0.7305 -0.71446,-1.6339 z M 34.631572,203.98698 c 9.443951,-1.97606 12.569538,-3.03416 14.924159,-5.05223 1.176679,-1.00849 2.670632,-3.08476 2.670632,-3.71159 0,-0.18676 -2.053828,-2.0965 -4.564062,-4.24386 -8.1958,-7.01103 -12.26686,-11.48764 -14.445296,-15.88432 -0.522737,-1.05503 -1.033332,-1.91823 -1.134656,-1.91823 -0.101324,0 -1.43775,1.19681 -2.969836,2.65958 -5.874442,5.60866 -7.970914,9.78876 -7.955003,15.86125 0.0069,2.62318 0.108792,3.33455 0.739192,5.15937 0.861145,2.49277 2.590015,5.37701 4.429559,7.38977 l 1.317354,1.44139 1.24502,-0.37999 c 0.684761,-0.209 3.269082,-0.80351 5.742937,-1.32114 z m 132.291668,0.81817 c 3.62101,-0.55587 9.67377,-1.71213 10.31875,-1.97119 0.48452,-0.19461 0.45104,-0.26032 -0.39688,-0.77886 -0.50932,-0.31148 -1.64041,-0.80175 -2.51354,-1.0895 -5.45311,-1.79712 -11.22739,-1.23682 -21.15189,2.05245 -4.97641,1.64932 -4.97175,1.63693 -0.80853,2.1476 2.85252,0.3499 11.28534,0.14099 14.55209,-0.3605 z M 66.804414,203.22629 c -0.410847,-2.22247 -1.443361,-4.57159 -4.129802,-9.39589 -1.342011,-2.40998 -2.725699,-4.94684 -3.074862,-5.63748 l -0.634843,-1.2557 0.0993,2.97549 0.0993,2.97549 1.24037,1.32292 c 2.680575,2.85897 5.009535,6.6124 5.992244,9.65729 0.563579,1.74624 0.785331,1.39749 0.40829,-0.64212 z m 65.745886,-6.56777 c -0.46895,-1.20055 -1.30784,-3.46577 -1.86419,-5.03382 -0.55636,-1.56805 -1.05936,-2.8032 -1.11777,-2.74479 -0.19245,0.19244 1.43729,5.66735 2.1536,7.23478 0.70401,1.54052 1.39136,2.72664 1.58006,2.72664 0.0555,0 -0.28275,-0.98227 -0.7517,-2.18281 z m -75.385463,-7.72151 c -0.09144,-1.08175 -0.758141,-4.74398 -1.481555,-8.1383 -0.723414,-3.39431 -1.499506,-7.22781 -1.72465,-8.51888 -0.485248,-2.78262 -0.535705,-7.77574 -0.09775,-9.67307 l 0.311603,-1.34994 -1.026372,-1.0511 c -0.564506,-0.57811 -1.119808,-0.95767 -1.234005,-0.84347 -0.114198,0.1142 -0.459331,1.15582 -0.766963,2.31471 -0.421144,1.58651 -0.559391,2.89148 -0.559575,5.28208 -2.81e-4,3.65808 0.183033,4.82992 1.797516,11.49064 0.650046,2.68184 1.375419,6.01559 1.611941,7.40834 0.426961,2.51414 0.439687,2.54118 1.778083,3.77758 0.741424,0.68493 1.39528,1.25047 1.453014,1.25677 0.05773,0.006 0.03015,-0.87361 -0.06129,-1.95536 z m 48.503343,1.02544 c 2.65444,-0.62561 5.37608,-2.06094 7.01429,-3.69915 1.6515,-1.65149 3.2662,-4.75557 3.96238,-7.61721 l 0.43954,-1.80669 -1.0976,-1.68465 c -0.60368,-0.92656 -1.24389,-1.80607 -1.42269,-1.95447 -0.22377,-0.18571 -0.99618,-0.13104 -2.47816,0.1754 -1.79642,0.37146 -2.39947,0.39352 -3.64059,0.1332 -3.1205,-0.65454 -4.68926,-2.39221 -4.7947,-5.31097 -0.076,-2.1053 0.64916,-1.75101 -7.921813,-3.87018 -3.335163,-0.82462 -7.353945,-1.85959 -8.930628,-2.29994 -1.576682,-0.44035 -2.912914,-0.75442 -2.969404,-0.69793 -0.275216,0.27522 -0.653546,7.78554 -0.503485,9.9948 0.306939,4.51888 1.495328,8.62576 3.342184,11.55005 2.160652,3.42115 6.130801,6.22303 10.023681,7.07408 2.323576,0.50798 6.850445,0.51487 8.976995,0.0137 z m 51.20089,-1.03808 c 4.28189,-0.86451 9.25558,-2.92302 12.90833,-5.3425 2.62846,-1.74102 6.74243,-5.91914 8.53288,-8.66592 2.87377,-4.40876 4.98612,-9.85882 5.69189,-14.68564 0.27091,-1.85279 0.25914,-2.21843 -0.084,-2.60789 -0.54712,-0.62101 -1.7824,-3.1772 -2.84001,-5.87692 -0.48457,-1.23693 -0.92211,-2.29981 -0.97231,-2.36196 -0.0502,-0.0622 -0.41746,0.18659 -0.81612,0.55276 -1.1301,1.03798 -3.8108,3.00926 -4.7466,3.49046 -1.02492,0.52701 -2.02721,0.56066 -2.42496,0.0814 -0.37246,-0.44878 -1.68289,-4.69654 -2.28264,-7.39918 -0.41407,-1.86588 -0.49989,-2.02928 -0.89149,-1.69734 -5.72002,4.84858 -6.15422,5.13467 -7.34094,4.83683 -0.87504,-0.21963 -1.04422,-0.77607 -1.41273,-4.64671 -0.30131,-3.16469 -0.70754,-4.49792 -1.3705,-4.49792 -0.58712,0 -3.83752,1.8879 -4.76425,2.76718 -0.80102,0.76 -1.14596,1.47682 -2.06826,4.29799 -0.6088,1.86223 -1.51103,5.46947 -2.00496,8.01608 -1.77243,9.13842 -2.26559,10.7593 -4.23481,13.91878 -1.32441,2.12494 -4.31391,5.0912 -6.0087,5.962 -0.61935,0.31823 -1.78093,0.77415 -2.5813,1.01315 l -1.45521,0.43455 -0.15947,1.83732 c -0.0877,1.01053 -0.25039,2.80205 -0.3615,3.98117 -0.19056,2.02232 -0.16788,2.17564 0.40014,2.70483 1.56281,1.45598 7.38891,3.67026 11.23333,4.26937 2.1718,0.33845 7.48617,0.1366 10.05417,-0.38188 z m -23.75828,-15.87992 c -0.0741,-2.47385 -0.27544,-5.22679 -0.44748,-6.11765 l -0.31279,-1.61973 -2.07526,0.87524 c -1.14139,0.48137 -2.90165,1.12134 -3.91169,1.42214 l -1.83643,0.54692 1.6751,1.73382 c 2.14648,2.22172 4.03675,4.7467 5.46117,7.29488 l 1.12858,2.01895 0.22674,-0.82832 c 0.12472,-0.45558 0.16614,-2.85239 0.0921,-5.32625 z m -16.45506,-4.00773 c 2.47202,-1.18344 5.11967,-2.36694 5.88365,-2.62999 l 1.38907,-0.47827 -0.006,-1.2045 c -0.009,-1.61296 -0.40415,-3.23563 -1.19715,-4.9119 -0.75009,-1.58557 -2.53307,-3.72392 -3.31088,-3.97078 -0.69926,-0.22194 -5.93195,2.30979 -8.09328,3.91578 -4.09135,3.04009 -6.346,7.60828 -4.93445,9.99784 0.69779,1.18127 1.77878,1.59765 3.91951,1.50973 1.7047,-0.07 2.22045,-0.25096 6.35,-2.22791 z m 12.89915,-5.12758 c 3.08514,-1.21394 6.57967,-3.45156 8.11584,-5.19674 1.52798,-1.73587 2.0049,-3.35126 1.97878,-6.70232 -0.0166,-2.12551 -0.15875,-3.18213 -0.60526,-4.49792 -1.03394,-3.04689 -3.65995,-7.98837 -5.64822,-10.6285 -2.52524,-3.35316 -6.27524,-7.65038 -7.47419,-8.56485 l -0.95333,-0.72714 -3.09971,1.46108 c -1.70485,0.80359 -4.29034,1.90779 -5.74555,2.45376 -1.45521,0.54598 -2.73476,1.0722 -2.84344,1.16938 -0.10868,0.0972 0.33334,1.68219 0.98228,3.52225 1.46429,4.15201 3.12713,10.17421 3.88975,14.08731 l 0.57855,2.96857 2.75514,-1.19744 c 2.73901,-1.19042 2.7542,-1.2021 2.59571,-1.99456 -0.19069,-0.95344 -2.54851,-5.95338 -3.31515,-7.03003 -0.87594,-1.23015 -0.54398,-2.13931 0.5718,-1.56601 0.72564,0.37285 2.71494,3.34071 3.97627,5.93224 1.13826,2.33868 1.18214,2.3889 1.88313,2.15524 0.82015,-0.27339 1.5519,0.14491 1.31832,0.75362 -0.18408,0.47969 -5.54326,3.6533 -6.97534,4.13066 -0.15429,0.0514 0.30751,0.70359 1.02623,1.44924 1.51391,1.57066 2.85782,4.20217 3.25693,6.3774 0.15336,0.83581 0.32777,1.78755 0.38759,2.11497 0.0598,0.32742 0.22738,0.59531 0.37235,0.59531 0.14497,0 1.48215,-0.47948 2.97152,-1.06552 z m -90.72416,-1.25742 c 1.546093,-2.63721 2.697773,-5.42482 3.412725,-8.26039 0.791564,-3.13943 0.774585,-8.23655 -0.03746,-11.24479 -1.200509,-4.44734 -3.510411,-8.09177 -6.720832,-10.60375 -1.888072,-1.47732 -5.595227,-3.44021 -6.79557,-3.59817 -0.576165,-0.0758 -0.676487,0.0451 -0.879798,1.0608 -0.300599,1.50168 -0.181685,1.73569 1.073028,2.11161 1.632571,0.48913 4.818711,2.70586 6.335989,4.4082 1.700344,1.90775 3.036001,4.41022 3.822816,7.1624 0.493643,1.7267 0.601012,2.74631 0.59777,5.67662 -0.0039,3.49505 -0.02823,3.64455 -1.132707,6.95117 -1.124525,3.36663 -1.60761,6.32001 -1.260185,7.70426 0.0953,0.37972 0.219228,0.6904 0.275385,0.6904 0.05616,0 0.645135,-0.92626 1.308837,-2.05836 z m 65.97544,0.97696 0.30832,-0.81682 -1.77166,-0.8045 c -2.9635,-1.34572 -7.469284,-2.70359 -15.926874,-4.79975 -4.438385,-1.10003 -9.796198,-2.48931 -11.90625,-3.0873 -3.571687,-1.01222 -8.873579,-2.07597 -9.090327,-1.82385 -0.05224,0.0608 -0.04097,0.54295 0.02506,1.0715 l 0.120049,0.96101 2.289797,0.453 c 2.089544,0.41338 5.359131,1.35989 13.799172,3.99471 3.027213,0.94504 20.666853,5.58561 21.439393,5.6402 0.22419,0.0158 0.54266,-0.33606 0.71332,-0.7882 z m -40.358502,-1.76287 c 0.373247,-0.40018 0.808356,-0.98041 0.966909,-1.28939 0.455965,-0.88857 0.866467,-3.0224 0.689007,-3.58152 -0.147236,-0.4639 -0.256636,-0.42402 -1.21699,0.4436 -1.090817,0.98549 -1.697929,1.09097 -2.149679,0.37349 -0.194125,-0.30831 -0.0735,-0.70034 0.466616,-1.51651 0.401949,-0.60739 0.787463,-1.62456 0.860158,-2.26951 0.118437,-1.05077 0.05877,-1.2166 -0.59086,-1.64226 -0.701873,-0.45988 -0.754001,-0.45683 -1.81734,0.10636 -1.34502,0.71237 -1.674474,0.72348 -1.883928,0.0635 -0.104047,-0.32782 0.09358,-0.90309 0.54412,-1.58391 0.664731,-1.00447 0.682359,-1.1075 0.291566,-1.70392 -1.106706,-1.68905 -5.032355,-2.35273 -6.814096,-1.15202 -1.733724,1.16836 -2.660382,3.49692 -2.2138,5.56297 0.777066,3.595 5.128721,7.36361 9.811783,8.49719 2.16258,0.52347 2.293198,0.5103 3.056534,-0.30812 z m 5.259329,0.30711 c 1.825187,-0.53406 6.067293,-2.77527 6.067293,-3.20551 0,-0.17915 -0.982266,-0.6236 -2.182813,-0.98766 -2.389622,-0.72463 -6.610451,-1.76252 -6.720437,-1.65253 -0.03803,0.038 0.111001,0.59204 0.331185,1.23112 0.45471,1.31981 0.319437,2.65128 -0.415893,4.09358 l -0.479998,0.94149 h 0.981789 c 0.539984,0 1.628477,-0.18922 2.418874,-0.42049 z m 38.081873,-2.53677 c 0,-0.70275 -10.089248,-4.89652 -16.011312,-6.65538 -9.757801,-2.89807 -17.845469,-4.41743 -25.729918,-4.83367 l -3.44742,-0.182 0.302721,0.96718 c 0.166496,0.53194 0.481521,1.02302 0.700055,1.09129 0.218535,0.0683 1.707023,0.24086 3.307752,0.38353 4.858526,0.43305 14.885085,2.60934 17.018848,3.694 0.53505,0.27198 3.932553,1.22535 7.550006,2.1186 6.341514,1.5659 9.644238,2.62559 13.184318,4.23022 l 1.66974,0.75685 0.72761,-0.6791 c 0.40018,-0.3735 0.7276,-0.77468 0.7276,-0.89152 z m 3.51368,-2.68352 c 0.95703,-0.62858 2.5225,-1.47542 3.47881,-1.88186 2.04806,-0.87043 2.02347,-0.76876 1.1973,-4.95033 -0.90997,-4.60571 -4.03817,-15.26504 -4.8792,-16.62586 -0.0593,-0.0959 -1.12578,0.15741 -2.37001,0.56295 -3.76606,1.22748 -6.5161,1.65583 -10.465577,1.63012 -2.006135,-0.0131 -4.553177,-0.20491 -5.810489,-0.43767 -1.231238,-0.22792 -2.28877,-0.36425 -2.35007,-0.30295 -0.256997,0.25699 -4.274858,13.50766 -4.274858,14.09823 0,0.13136 1.041797,0.51071 2.315105,0.84299 6.469424,1.68828 16.146909,5.3086 19.716359,7.37585 0.76129,0.44089 1.4558,0.80833 1.54337,0.81651 0.0876,0.008 0.94223,-0.49941 1.89926,-1.12798 z m 73.20581,-13.03427 c -0.26265,-5.67953 -0.26405,-7.70987 -0.007,-9.78958 0.4199,-3.394 1.6359,-7.05705 3.06502,-9.23292 0.7742,-1.17874 1.03679,-1.78691 0.8284,-1.91858 -0.16781,-0.10603 -2.09104,-0.17802 -4.27386,-0.15997 -3.48763,0.0288 -4.34165,0.12921 -7.04482,0.828 -10.05709,2.59985 -16.28716,7.00468 -21.54305,15.23151 l -0.48386,0.75736 1.36405,-0.69122 c 1.98294,-1.00483 3.83248,-0.87044 4.73696,0.34419 0.47802,0.64193 0.90605,2.38593 1.23825,5.04519 l 0.30122,2.41127 2.9846,-2.39385 c 3.25569,-2.61128 4.0086,-2.87837 5.03476,-1.78608 0.32368,0.34455 0.80146,1.51913 1.10313,2.71198 0.58572,2.31597 1.69218,5.86332 1.89078,6.06192 0.0695,0.0695 0.95369,-0.5266 1.96487,-1.32464 2.53964,-2.00432 4.10997,-3.02994 4.63914,-3.02994 0.82276,0 1.5404,0.90682 2.51261,3.175 0.5302,1.23692 1.15896,2.66567 1.39726,3.175 l 0.43327,0.92604 0.0947,-1.5875 c 0.0521,-0.87313 -0.0544,-4.81206 -0.23668,-8.75318 z M 83.983774,147.7106 c 0.706745,-2.71801 2.162419,-7.46449 3.143039,-10.24844 0.585344,-1.66177 1.026566,-3.05909 0.980493,-3.10517 -0.04607,-0.0461 -1.464318,-0.54757 -3.151656,-1.11444 l -3.067887,-1.03067 -0.733052,0.96941 c -2.120176,2.8038 -8.122424,9.90356 -9.667632,11.43536 l -1.773659,1.75827 2.66106,0.32252 c 1.463583,0.17738 3.490549,0.48057 4.504368,0.67374 1.668527,0.31792 1.857582,0.3099 1.993844,-0.0846 1.306804,-3.78362 2.893489,-6.31055 3.553506,-5.65927 0.272949,0.26934 0.149325,0.87508 -0.64798,3.175 -0.541905,1.56319 -0.983385,2.97104 -0.981068,3.12855 0.0034,0.23276 0.88405,0.51518 2.705994,0.86781 0.103532,0.02 0.319815,-0.46959 0.48063,-1.08805 z m -27.589992,-2.18281 c 1.200675,0 2.18294,-0.0947 2.182813,-0.21047 -1.28e-4,-0.11575 -0.292476,-0.5027 -0.649664,-0.85989 -0.967579,-0.96758 -2.489697,-0.89707 -3.706986,0.17173 -0.995509,0.87406 -1.263576,1.5129 -0.472228,1.12537 0.254662,-0.12471 1.445391,-0.22674 2.646065,-0.22674 z M 45.624166,139.3717 c 2.741569,-6.58554 1.800458,-13.31825 -2.718419,-19.44756 -1.221262,-1.6565 -5.621729,-6.01406 -6.073274,-6.01406 -0.250053,0 -1.539443,1.88262 -1.539443,2.24772 0,0.15003 0.643978,0.77574 1.431063,1.39047 1.916418,1.49674 4.433359,4.67494 5.564185,7.02602 1.01608,2.11252 1.995849,5.79027 1.998732,7.50262 0.0024,1.40489 -0.636711,4.76209 -1.132299,5.9482 -0.33978,0.8132 -0.332169,1.04158 0.06969,2.09112 0.248122,0.64803 0.538101,1.41635 0.6444,1.70739 0.188954,0.51735 0.201521,0.51796 0.562801,0.0271 0.203242,-0.27612 0.739895,-1.39169 1.192562,-2.47905 z M 21.76273,133.15852 c 0.523057,-1.44873 1.673824,-8.45658 1.428885,-8.70152 -0.276979,-0.27698 -8.569483,-2.13505 -8.74506,-1.95947 -0.109784,0.10978 -1.886481,9.05355 -1.89997,9.56431 -0.0045,0.17132 1.608296,0.56975 3.894882,0.9622 5.012452,0.86028 5.058791,0.86145 5.321263,0.13448 z m 81.73134,-0.33481 c 1.16251,-0.22053 4.76418,-1.29363 8.00372,-2.38467 8.1744,-2.75305 12.05378,-4.60986 19.17753,-9.17901 5.94577,-3.81359 15.13658,-10.48987 17.42634,-12.65862 l 2.11304,-2.00138 -1.6999,-0.93145 c -1.76558,-0.96743 -2.57497,-1.93271 -2.27533,-2.71355 0.096,-0.25009 1.67616,-1.16445 3.51153,-2.03192 l 3.33704,-1.577216 -2.6074,-2.72056 c -1.43407,-1.49631 -3.26188,-3.55982 -4.06179,-4.585586 -1.36895,-1.755469 -1.61321,-1.936993 -4.15805,-3.090037 -4.56216,-2.067074 -6.3207,-2.427597 -11.71777,-2.402296 -4.09437,0.01919 -4.92348,0.100298 -7.16438,0.700817 -9.10006,2.438652 -15.74694,9.439972 -21.54185,22.690578 -1.09362,2.50064 -1.19713,2.90954 -1.04494,4.12765 0.13493,1.07994 0.0577,1.57004 -0.38364,2.43517 -0.626849,1.22873 -2.923904,3.63431 -3.707983,3.88316 -0.492472,0.15631 -0.499661,0.22464 -0.132987,1.2639 0.694535,1.96852 1.961158,2.86887 4.05882,2.88512 1.61756,0.0125 2.49736,-0.45063 4.04269,-2.12822 1.24134,-1.3476 1.83964,-1.51849 2.18306,-0.62355 0.25809,0.67256 -1.20517,2.76152 -2.58366,3.68844 -2.2526,1.51469 -5.039789,1.4883 -7.354881,-0.0696 l -1.35701,-0.9132 -1.011667,0.91398 c -1.645987,1.48705 -4.358278,1.62189 -6.333322,0.31487 -1.725121,-1.14163 -2.470702,-2.81774 -1.526272,-3.43114 0.387849,-0.25191 0.636558,-0.0976 1.591466,0.98761 1.015178,1.15367 1.268902,1.29936 2.46275,1.41407 1.168199,0.11225 1.437449,0.0383 2.201625,-0.60472 1.809148,-1.52229 1.736557,-3.10557 -0.183778,-4.00833 -1.524557,-0.7167 -3.422573,-2.50061 -3.915331,-3.67995 -0.512268,-1.22603 -0.459223,-2.03135 0.187999,-2.85416 0.5484,-0.69717 0.54965,-0.73041 0.09835,-2.61536 -0.63274,-2.64281 -2.630624,-8.12427 -3.832693,-10.51552 -1.229393,-2.445596 -3.690229,-5.788871 -5.49122,-7.460324 -3.071549,-2.850667 -7.509785,-5.119884 -11.306896,-5.781122 -2.640828,-0.45988 -6.230654,-0.162115 -8.914374,0.739422 l -2.189071,0.735369 -1.194673,2.29341 c -1.796333,3.448412 -4.134228,7.107929 -6.399725,10.017515 -1.458403,1.87304 -1.942684,2.67704 -1.719792,2.85519 0.550061,0.43963 2.389861,1.28568 3.795626,1.74544 0.752785,0.24621 1.519083,0.62885 1.702885,0.85032 0.593984,0.71571 -0.617086,2.39206 -2.784196,3.85387 -0.595685,0.40182 2.71308,3.09888 9.91111,8.07881 6.969491,4.82181 10.442318,6.74244 17.522911,9.69095 6.373099,2.65389 11.668863,4.28168 16.331715,5.01999 1.729082,0.27377 7.007604,0.14134 8.934374,-0.22416 z M 74.502126,112.84529 c -1.821352,-1.11045 -2.46669,-4.40032 -1.297038,-6.61217 1.70454,-3.22333 5.48432,-2.34153 6.274295,1.46376 0.834917,4.02178 -2.005729,6.9601 -4.977257,5.14841 z m 40.012434,-0.22788 c -1.14756,-0.69978 -1.76476,-2.15465 -1.76476,-4.1599 0,-2.64053 1.35164,-4.37611 3.45089,-4.43116 1.49579,-0.0392 2.33417,0.51377 3.09566,2.04188 1.13261,2.27286 0.66764,5.11549 -1.05889,6.47358 -0.9203,0.72391 -2.60369,0.75809 -3.7229,0.0756 z m -88.38281,17.07522 c 0.547523,-2.8063 0.480087,-3.06928 -0.789419,-3.0785 -0.496741,-0.004 -0.617376,0.29364 -1.098994,2.70793 -0.297552,1.49159 -0.481766,2.80799 -0.409366,2.92533 0.0724,0.11734 0.50462,0.17687 0.960488,0.13229 0.827445,-0.0809 0.829714,-0.0855 1.337291,-2.68705 z m -14.764734,0.1586 c 0.09628,-0.54571 0.399328,-2.10663 0.673448,-3.46871 0.274119,-1.36209 0.498399,-2.68152 0.498399,-2.93206 0,-0.36273 -0.525584,-0.56614 -2.5796872,-0.99842 -1.4188283,-0.29858 -2.6565762,-0.49784 -2.7505511,-0.4428 -0.1977474,0.11581 -1.6663991,7.75216 -1.5165232,7.88525 0.1349587,0.11985 4.1849533,0.87422 4.9165435,0.91578 0.475475,0.027 0.615687,-0.1503 0.758371,-0.95904 z m -3.3260695,-0.42578 c -1.1879834,-0.25414 -1.4707341,-0.41976 -1.5397562,-0.90188 -0.1029121,-0.71885 0.1408398,-0.73455 2.6266785,-0.16915 1.4563102,0.33123 1.8350612,0.51526 1.7697602,0.85989 -0.104326,0.55059 -0.9705962,0.61462 -2.8566825,0.21114 z m 0.5872965,-2.40492 c -1.5807173,-0.38275 -1.779413,-0.5091 -1.5032837,-0.95589 0.1339932,-0.2168 0.668481,-0.2666 1.7020169,-0.15857 1.9517388,0.20399 2.3889708,0.38645 2.3889708,0.9969 0,0.59099 -0.53261,0.61519 -2.587704,0.11756 z m 0.6033288,-2.04212 c -1.4565679,-0.27479 -2.0758625,-0.70295 -1.758708,-1.21591 0.1658056,-0.26817 0.5820944,-0.26303 2.111148,0.0261 2.1089412,0.39877 2.2971192,0.49789 2.0698002,1.09028 -0.173477,0.45207 -0.485536,0.46489 -2.4222402,0.0995 z m 87.2240402,-7.22304 c 0.999181,-0.67896 2.072834,-2.15828 2.072834,-2.85603 0,-0.5485 -0.594066,-0.74192 -2.806873,-0.91385 -2.128943,-0.16541 -4.5584,0.29826 -4.795133,0.91518 -0.235135,0.61275 0.55227,1.69728 1.922133,2.64743 1.484826,1.02989 2.325366,1.07819 3.607039,0.20727 z m -61.742164,-3.90269 1.404792,-2.16555 -0.611042,-0.47014 c -0.336074,-0.25858 -0.685329,-0.47279 -0.776123,-0.47603 -0.200648,-0.007 -2.877628,4.03574 -2.877628,4.34591 0,0.27325 0.832514,0.92158 1.190625,0.92721 0.14552,0.002 0.89674,-0.97034 1.669376,-2.1614 z m -3.001222,-1.65604 c 1.264523,-1.96104 2.260087,-3.74464 2.212364,-3.96354 -0.07513,-0.34462 -7.085694,-5.28895 -7.240567,-5.10654 -0.360506,0.42459 -5.153788,7.95416 -5.095746,8.0047 0.534784,0.46562 7.301916,4.63086 7.523639,4.63088 0.165648,1e-5 1.335788,-1.60446 2.60031,-3.5655 z m 67.112596,-1.19698 c 0.722769,-2.27847 5.617248,-11.663786 7.301148,-14.000146 5.92974,-8.227382 13.34403,-12.395967 23.35873,-13.133123 3.56551,-0.262449 8.47349,0.673881 12.49068,2.382935 0.29128,0.123922 -0.0223,-0.592819 -0.88154,-2.014588 -1.51832,-2.51247 -1.47691,-1.929202 -0.62628,-8.821529 1.27584,-10.337681 -0.78229,-22.81054 -4.81593,-29.186001 -0.74609,-1.179239 -0.98325,-1.378649 -1.47733,-1.242161 -1.40892,0.389208 -5.55665,2.613527 -7.74001,4.150763 -2.74606,1.933422 -10.05657,9.106065 -12.43229,12.197842 -0.87061,1.133015 -1.83151,2.123341 -2.13532,2.200724 -0.30382,0.07738 -2.08976,-0.158894 -3.96875,-0.52506 -8.911499,-1.736614 -14.892384,-1.500184 -22.295366,0.881354 -1.974858,0.635311 -2.585503,0.736931 -3.022601,0.503003 C 82.278695,64.23244 80.95182,63.147029 79.63135,61.98165 72.71498,55.877613 63.774909,50.128984 59.358694,48.945963 c -1.386005,-0.371284 -1.462218,-0.364562 -1.90426,0.167965 -1.354072,1.631252 -2.578676,9.025924 -2.580752,15.583656 -0.0019,5.875063 0.602869,9.585071 2.797289,17.161369 0.352445,1.216825 0.640809,2.61581 0.640809,3.108854 0,0.493044 0.02976,0.894907 0.06615,0.89303 0.03638,-0.0019 0.840052,-0.249431 1.785937,-0.550118 1.119625,-0.355918 2.781626,-0.598028 4.7625,-0.693771 3.652533,-0.176541 6.245904,0.366242 9.740661,2.038685 5.859051,2.803894 9.76824,6.779978 13.019913,13.242711 1.147786,2.281236 3.50294,9.053946 3.814389,10.969026 l 0.172116,1.05833 h 3.428813 3.428814 z M 61.251032,77.596021 c -0.613686,-1.433105 -1.310332,-4.207004 -1.777493,-7.077604 -0.743417,-4.568131 -0.25379,-12.814122 0.861986,-14.51701 0.357486,-0.545593 0.569319,-0.611141 1.640764,-0.507707 1.504314,0.145222 4.584795,1.655235 6.948363,3.406 0.962133,0.71268 3.023115,2.614227 4.579961,4.225661 3.608663,3.735194 3.608321,3.722702 0.163913,5.987415 -2.836858,1.865246 -6.664328,5.181062 -9.028744,7.821787 -1.984664,2.216595 -2.665869,2.349561 -3.38875,0.661458 z m 4.354053,-4.642729 c 2.306075,-2.239607 5.25811,-4.663989 7.527388,-6.181928 l 0.657432,-0.439761 -1.5875,-1.638119 C 69.748863,62.16171 66.602394,59.720919 64.29963,58.563111 62.718868,57.76832 62.155433,57.592722 61.99886,57.846064 c -0.887727,1.436372 -0.960967,10.107733 -0.11709,13.862978 0.485995,2.162675 0.924801,3.837692 1.00427,3.833523 0.03077,-0.0016 1.254342,-1.166787 2.719045,-2.589273 z m 67.135955,1.810603 c -0.46458,-0.283275 -1.72837,-1.168555 -2.80842,-1.967289 -2.45459,-1.815259 -6.15022,-4.064251 -9.17404,-5.582902 -1.27533,-0.640508 -2.39647,-1.367012 -2.49142,-1.614453 -0.52625,-1.371384 5.00161,-8.308216 9.02989,-11.331494 2.86814,-2.152573 4.38099,-2.918523 5.05354,-2.558587 1.97245,1.055625 3.7488,10.152319 3.36296,17.221747 -0.22469,4.11687 -0.48768,5.560424 -1.09375,6.003591 -0.63012,0.460757 -0.88058,0.438012 -1.87876,-0.170613 z m 0.62565,-3.120999 c 0.3197,-1.2379 0.21787,-9.085798 -0.14504,-11.178646 -0.42904,-2.474193 -1.3347,-6.157414 -1.57343,-6.398983 -0.32079,-0.324601 -3.69431,2.1556 -5.76125,4.235651 -1.87961,1.891537 -5.14427,5.934482 -5.12502,6.346804 0.005,0.100184 1.70614,1.117506 3.78103,2.260715 2.07488,1.143208 4.77973,2.830848 6.01076,3.750309 1.23104,0.919462 2.32528,1.68075 2.43164,1.691751 0.10637,0.011 0.27796,-0.307419 0.38131,-0.707601 z M 22.915671,106.12708 c 1.002809,-1.5726 1.768364,-2.91419 1.701234,-2.98132 -0.275493,-0.27549 -4.265476,-2.72943 -4.437921,-2.72943 -0.292406,0 -3.730999,5.50966 -3.629197,5.81506 0.119098,0.3573 3.987052,2.88654 4.300731,2.81224 0.133025,-0.0315 1.062344,-1.34396 2.065153,-2.91655 z m -3.681946,0.60774 c -1.099848,-0.70921 -1.591303,-1.18284 -1.493047,-1.43889 0.218863,-0.57034 0.558363,-0.4784 2.254223,0.6105 1.401653,0.9 1.855683,1.62055 1.142921,1.81384 -0.145521,0.0395 -1.002365,-0.40399 -1.904097,-0.98545 z m 1.044201,-1.73917 c -1.304962,-0.89315 -1.678174,-1.45899 -1.169619,-1.7733 0.329553,-0.20367 3.525176,1.96735 3.409087,2.31605 -0.189116,0.56805 -0.850813,0.40768 -2.239468,-0.54275 z m 1.099579,-1.4374 c -0.85943,-0.59826 -1.603279,-1.12429 -1.652999,-1.16895 -0.04972,-0.0447 0.01629,-0.27184 0.14669,-0.50485 0.205187,-0.36665 0.45336,-0.28387 1.844397,0.6152 1.847804,1.19429 2.064627,1.44911 1.577228,1.85362 -0.269805,0.22391 -0.720033,0.037 -1.915316,-0.79502 z"
       id="path1" /></g></svg>
